<?xml version="1.0" encoding="UTF-8" standalone="no"?>
<!-- Created with Inkscape (http://www.inkscape.org/) -->

<svg
   width="483.85913"
   height="58"
   viewBox="0 0 128.02106 15.345833"
   version="1.1"
   id="svg3424"
   inkscape:export-filename="form_header.png"
   inkscape:export-xdpi="96"
   inkscape:export-ydpi="96"
   inkscape:version="1.2.2 (b0a8486541, 2022-12-01)"
   sodipodi:docname="symbol_text_1600x400.svg"
   xmlns:inkscape="http://www.inkscape.org/namespaces/inkscape"
   xmlns:sodipodi="http://sodipodi.sourceforge.net/DTD/sodipodi-0.dtd"
   xmlns="http://www.w3.org/2000/svg"
   xmlns:svg="http://www.w3.org/2000/svg">
  <sodipodi:namedview
     id="namedview3426"
     pagecolor="#ffffff"
     bordercolor="#000000"
     borderopacity="0.25"
     inkscape:showpageshadow="2"
     inkscape:pageopacity="1"
     inkscape:pagecheckerboard="0"
     inkscape:deskcolor="#d1d1d1"
     inkscape:document-units="mm"
     showgrid="false"
     inkscape:zoom="0.55055723"
     inkscape:cx="672.04639"
     inkscape:cy="338.74771"
     inkscape:window-width="1882"
     inkscape:window-height="1021"
     inkscape:window-x="38"
     inkscape:window-y="22"
     inkscape:window-maximized="1"
     inkscape:current-layer="layer1" />
  <defs
     id="defs3421">
    <linearGradient
       id="SVGID_4_"
       gradientUnits="userSpaceOnUse"
       x1="49.256001"
       y1="49.474701"
       x2="80.896797"
       y2="49.474701">
      <stop
         offset="0.1844"
         style="stop-color:#0E78BE"
         id="stop86" />
      <stop
         offset="0.4469"
         style="stop-color:#00A8EA"
         id="stop88" />
      <stop
         offset="0.7905"
         style="stop-color:#00AAEC"
         id="stop90" />
      <stop
         offset="1"
         style="stop-color:#0E78BE"
         id="stop92" />
    </linearGradient>
    <linearGradient
       id="SVGID_5_"
       gradientUnits="userSpaceOnUse"
       x1="44.259602"
       y1="51.642899"
       x2="89.291603"
       y2="51.642899">
      <stop
         offset="0.1844"
         style="stop-color:#00A8EA"
         id="stop97" />
      <stop
         offset="1"
         style="stop-color:#204F87"
         id="stop99" />
    </linearGradient>
    <linearGradient
       id="SVGID_6_"
       gradientUnits="userSpaceOnUse"
       x1="60.402199"
       y1="49.698601"
       x2="86.443199"
       y2="49.698601">
      <stop
         offset="0.1844"
         style="stop-color:#0E78BE"
         id="stop106" />
      <stop
         offset="0.4469"
         style="stop-color:#00A8EA"
         id="stop108" />
      <stop
         offset="0.7905"
         style="stop-color:#00AAEC"
         id="stop110" />
      <stop
         offset="1"
         style="stop-color:#0E78BE"
         id="stop112" />
    </linearGradient>
  </defs>
  <g
     inkscape:label="Layer 1"
     inkscape:groupmode="layer"
     id="layer1"
     transform="translate(-15.875001,-32.130354)">
    <g
       id="g4347"
       transform="matrix(1.2984123,0,0,1.2984123,-11.187024,14.010122)">
      <g
         id="g117"
         transform="matrix(0.26458333,0,0,0.26458333,9.1330039,6.2007469)">
        <g
           id="g104">
          <linearGradient
             id="linearGradient3262"
             gradientUnits="userSpaceOnUse"
             x1="49.256001"
             y1="49.474701"
             x2="80.896797"
             y2="49.474701">
            <stop
               offset="0.1844"
               style="stop-color:#0E78BE"
               id="stop3254" />
            <stop
               offset="0.4469"
               style="stop-color:#00A8EA"
               id="stop3256" />
            <stop
               offset="0.7905"
               style="stop-color:#00AAEC"
               id="stop3258" />
            <stop
               offset="1"
               style="stop-color:#0E78BE"
               id="stop3260" />
          </linearGradient>
          <path
             class="st4"
             d="m 54.3,65.68 c -1.38,0 -1.83,0.5 -2.38,1.36 H 50.18 L 49.26,55.26 h 1.83 c 2.38,6.86 7.43,10.07 13.85,10.07 5.23,0 8.9,-2.07 8.9,-5.86 0,-4.36 -5.04,-5.71 -10.36,-7.36 l -2.29,-0.64 c -6.88,-2.14 -10.82,-4.28 -10.82,-9.14 0,-6.07 7.61,-10.98 16.42,-10.98 5.41,0 5.5,2.56 7.52,2.56 1.65,0 1.74,-0.86 1.93,-1.29 h 1.65 l 0.64,10.5 H 76.7 c -1.38,-4.64 -4.4,-8.28 -11.01,-8.28 -4.95,0 -8.62,2.07 -8.62,5.14 0,3.36 4.4,5.29 7.98,6.28 l 2.48,0.64 c 8.44,2.29 13.39,4.79 13.39,10.36 0,6.36 -6.6,10.5 -15.87,10.36 -6.17,-0.09 -8.09,-1.94 -10.75,-1.94 z"
             id="path95"
             style="fill:url(#SVGID_4_)" />
          <linearGradient
             id="linearGradient3269"
             gradientUnits="userSpaceOnUse"
             x1="44.259602"
             y1="51.642899"
             x2="89.291603"
             y2="51.642899">
            <stop
               offset="0.1844"
               style="stop-color:#00A8EA"
               id="stop3265" />
            <stop
               offset="1"
               style="stop-color:#204F87"
               id="stop3267" />
          </linearGradient>
          <path
             class="st5"
             d="m 52.07,69.06 c 17.74,13.48 36.29,-3.89 37.22,-14.45 -0.05,-0.01 0.03,0 -0.02,0 -1.3,4.47 -5.75,13.77 -18.17,14.93 -6.89,0.64 -13.49,-3.48 -17.32,-9.25 -8.8,-13.22 0.06,-29.47 13,-29.87 5.92,-0.18 8.72,6.63 9.95,11.97 l 1.79,0.72 -0.72,-13.8 h -1.48 c -0.17,0.49 -0.25,1.48 -1.73,1.48 -1.11,0 -2.11,-0.57 -3.85,-0.99 v -0.01 h -0.01 c -1.08,-0.26 -2.44,-0.48 -4.28,-0.48 -0.91,0 -1.79,0.07 -2.63,0.18 -9.46,1.14 -17.97,8.62 -19.38,19.64 -0.99,7.74 2.08,15.13 7.63,19.93 z"
             id="path102"
             style="fill:url(#SVGID_5_)" />
        </g>
        <linearGradient
           id="linearGradient3281"
           gradientUnits="userSpaceOnUse"
           x1="60.402199"
           y1="49.698601"
           x2="86.443199"
           y2="49.698601">
          <stop
             offset="0.1844"
             style="stop-color:#0E78BE"
             id="stop3273" />
          <stop
             offset="0.4469"
             style="stop-color:#00A8EA"
             id="stop3275" />
          <stop
             offset="0.7905"
             style="stop-color:#00AAEC"
             id="stop3277" />
          <stop
             offset="1"
             style="stop-color:#0E78BE"
             id="stop3279" />
        </linearGradient>
        <path
           class="st6"
           d="m 66.5,36.75 c -11.42,3.39 12.8,7.9 16.9,11.86 1.59,1.27 2.65,2.97 2.97,4.95 0.34,1.99 -0.61,4.21 -1.65,5.67 -0.5,0.75 -1.09,1.4 -1.75,1.95 -0.63,0.57 -1.35,1.03 -2.07,1.45 0.95,-1.37 1.78,-2.77 2.22,-4.19 0.45,-1.43 0.28,-3.58 -0.19,-4.76 -0.96,-2.37 -1.73,-3.42 -5.98,-5.53 -4.9,-2.3 -16.15,-4.35 -16.52,-8.27 -0.44,-2.83 5.63,-3.09 6.07,-3.13 z"
           id="path115"
           style="fill:url(#SVGID_6_)" />
      </g>
      <g
         id="g161"
         transform="matrix(0.2471921,0,0,0.2471921,9.2744527,6.9181353)">
        <path
           class="st3"
           d="m 101.87,54.91 v -7.43 c 0,-4.04 2.19,-6.23 5.93,-6.23 3.83,0 5.96,2.19 6.09,6.23 h -3.88 c -0.11,-1.75 -0.77,-2.46 -2.24,-2.46 -1.18,0 -1.86,0.77 -1.86,2.46 v 7.43 c 0,1.64 0.66,2.41 1.86,2.41 1.5,0 2.19,-0.71 2.3,-2.41 h 3.88 c -0.08,4.02 -2.3,6.18 -6.18,6.18 -3.72,0 -5.9,-2.16 -5.9,-6.18 z"
           id="path119"
           style="fill:#204f87" />
        <path
           class="st3"
           d="m 117.69,54.56 v -6.72 c 0,-4.1 2.32,-6.53 6.2,-6.53 3.88,0 6.2,2.43 6.2,6.53 v 6.72 c 0,4.1 -2.32,6.53 -6.2,6.53 -3.87,0 -6.2,-2.43 -6.2,-6.53 z m 8.39,0 v -6.72 c 0,-1.8 -0.74,-2.76 -2.19,-2.76 -1.45,0 -2.19,0.96 -2.19,2.76 v 6.72 c 0,1.8 0.74,2.76 2.19,2.76 1.46,0 2.19,-0.96 2.19,-2.76 z"
           id="path121"
           style="fill:#204f87" />
        <path
           class="st3"
           d="m 151.45,41.63 v 19.13 h -3.8 v -4.7 c 0.11,-2.32 0.19,-4.65 0.3,-6.97 l -0.14,-0.05 -1.72,5.03 -0.96,2.6 h -3.83 l -0.96,-2.6 -1.72,-5.03 -0.14,0.05 c 0.08,2.32 0.19,4.65 0.27,6.97 v 4.7 H 135 V 41.63 h 3.91 l 3.01,7.24 c 0.38,0.96 1.04,2.62 1.26,3.33 h 0.11 c 0.22,-0.71 0.87,-2.38 1.26,-3.33 l 3.01,-7.24 z"
           id="path123"
           style="fill:#204f87" />
        <path
           class="st3"
           d="m 168.75,48.13 c 0,4.07 -2.35,6.48 -6.31,6.48 h -1.67 v 6.15 h -3.88 V 41.63 h 5.55 c 3.96,0 6.31,2.41 6.31,6.5 z m -3.99,0 c 0,-1.86 -0.82,-2.81 -2.38,-2.81 h -1.61 v 5.6 h 1.61 c 1.56,0 2.38,-0.96 2.38,-2.79 z"
           id="path125"
           style="fill:#204f87" />
        <path
           class="st3"
           d="m 179.03,57.59 h -4.04 l -0.63,3.17 h -4.02 l 4.59,-19.13 h 4.15 l 4.59,19.13 h -4.02 z m -0.76,-3.69 -0.44,-2.19 c -0.25,-1.37 -0.57,-3.69 -0.77,-5.25 h -0.11 c -0.19,1.56 -0.49,3.88 -0.77,5.25 l -0.44,2.19 z"
           id="path127"
           style="fill:#204f87" />
        <path
           class="st3"
           d="m 186.6,54.91 v -7.43 c 0,-4.04 2.19,-6.23 5.93,-6.23 3.83,0 5.96,2.19 6.09,6.23 h -3.88 c -0.11,-1.75 -0.77,-2.46 -2.24,-2.46 -1.18,0 -1.86,0.77 -1.86,2.46 v 7.43 c 0,1.64 0.66,2.41 1.86,2.41 1.5,0 2.19,-0.71 2.3,-2.41 h 3.88 c -0.08,4.02 -2.3,6.18 -6.18,6.18 -3.71,0 -5.9,-2.16 -5.9,-6.18 z"
           id="path129"
           style="fill:#204f87" />
        <path
           class="st3"
           d="m 213.17,45.32 h -3.74 v 15.44 h -3.99 V 45.32 h -3.74 v -3.69 h 11.48 v 3.69 z"
           id="path131"
           style="fill:#204f87" />
        <path
           class="st3"
           d="m 223.67,55.18 h 3.99 c 0,1.53 0.77,2.19 2,2.19 1.28,0 1.91,-0.74 1.91,-1.69 0,-3.17 -7.49,-3.55 -7.49,-9.37 0,-2.92 2.05,-5.06 5.58,-5.06 3.53,0 5.66,2.1 5.66,5.63 h -3.99 c 0,-1.26 -0.57,-1.89 -1.69,-1.89 -1.01,0 -1.61,0.55 -1.61,1.42 0,3.01 7.6,3.2 7.6,9.29 0,3.14 -2.21,5.44 -6.01,5.44 -3.65,0 -5.95,-2.1 -5.95,-5.96 z"
           id="path133"
           style="fill:#204f87" />
        <path
           class="st3"
           d="m 256.17,41.63 v 19.13 h -3.8 v -4.7 c 0.11,-2.32 0.19,-4.65 0.3,-6.97 l -0.14,-0.05 -1.72,5.03 -0.96,2.6 h -3.83 l -0.96,-2.6 -1.72,-5.03 -0.14,0.05 c 0.08,2.32 0.19,4.65 0.27,6.97 v 4.7 H 239.7 V 41.63 h 3.91 l 3.01,7.24 c 0.38,0.96 1.04,2.62 1.26,3.33 H 248 c 0.22,-0.71 0.87,-2.38 1.26,-3.33 l 3.01,-7.24 z"
           id="path135"
           style="fill:#204f87" />
        <path
           class="st3"
           d="m 268.69,57.59 h -4.04 l -0.63,3.17 H 260 l 4.59,-19.13 h 4.15 l 4.59,19.13 h -4.02 z m -0.77,-3.69 -0.44,-2.19 c -0.25,-1.37 -0.57,-3.69 -0.77,-5.25 h -0.11 c -0.19,1.56 -0.49,3.88 -0.76,5.25 l -0.44,2.19 z"
           id="path137"
           style="fill:#204f87" />
        <path
           class="st3"
           d="m 282.41,54.34 h -1.37 v 6.42 h -3.88 V 41.63 h 5.55 c 3.8,0 6.04,2.35 6.04,6.37 0,2.6 -0.96,4.51 -2.65,5.52 l 3.61,7.24 h -4.24 z m -1.37,-3.69 h 1.61 c 1.37,0 2.1,-0.93 2.1,-2.65 0,-1.75 -0.74,-2.68 -2.1,-2.68 h -1.61 z"
           id="path139"
           style="fill:#204f87" />
        <path
           class="st3"
           d="m 303.78,45.32 h -3.74 v 15.44 h -3.99 V 45.32 h -3.74 v -3.69 h 11.48 v 3.69 z"
           id="path141"
           style="fill:#204f87" />
        <path
           class="st3"
           d="m 314.28,55.18 h 3.99 c 0,1.53 0.77,2.19 2,2.19 1.29,0 1.91,-0.74 1.91,-1.69 0,-3.17 -7.49,-3.55 -7.49,-9.37 0,-2.92 2.05,-5.06 5.58,-5.06 3.53,0 5.66,2.1 5.66,5.63 h -3.99 c 0,-1.26 -0.57,-1.89 -1.69,-1.89 -1.01,0 -1.61,0.55 -1.61,1.42 0,3.01 7.6,3.2 7.6,9.29 0,3.14 -2.21,5.44 -6.01,5.44 -3.65,0 -5.95,-2.1 -5.95,-5.96 z"
           id="path143"
           style="fill:#204f87" />
        <path
           class="st3"
           d="m 330.05,54.56 v -6.72 c 0,-4.1 2.32,-6.53 6.2,-6.53 3.88,0 6.2,2.43 6.2,6.53 v 6.72 c 0,4.1 -2.32,6.53 -6.2,6.53 -3.88,0 -6.2,-2.43 -6.2,-6.53 z m 8.4,0 v -6.72 c 0,-1.8 -0.74,-2.76 -2.19,-2.76 -1.45,0 -2.19,0.96 -2.19,2.76 v 6.72 c 0,1.8 0.74,2.76 2.19,2.76 1.45,0 2.19,-0.96 2.19,-2.76 z"
           id="path145"
           style="fill:#204f87" />
        <path
           class="st3"
           d="m 356.92,57.07 v 3.69 h -9.57 V 41.63 h 3.88 v 15.44 z"
           id="path147"
           style="fill:#204f87" />
        <path
           class="st3"
           d="M 359.79,54.61 V 41.63 h 4.04 v 12.98 c 0,1.75 0.68,2.71 2.05,2.71 1.37,0 2.05,-0.96 2.05,-2.71 V 41.63 h 4.04 v 12.98 c 0,4.04 -2.27,6.48 -6.09,6.48 -3.82,0 -6.09,-2.43 -6.09,-6.48 z"
           id="path149"
           style="fill:#204f87" />
        <path
           class="st3"
           d="m 387.29,45.32 h -3.74 v 15.44 h -3.99 V 45.32 h -3.74 v -3.69 h 11.48 v 3.69 z"
           id="path151"
           style="fill:#204f87" />
        <path
           class="st3"
           d="m 395.06,41.63 v 19.13 h -3.88 V 41.63 Z"
           id="path153"
           style="fill:#204f87" />
        <path
           class="st3"
           d="m 399.95,54.56 v -6.72 c 0,-4.1 2.32,-6.53 6.2,-6.53 3.88,0 6.2,2.43 6.2,6.53 v 6.72 c 0,4.1 -2.32,6.53 -6.2,6.53 -3.88,0 -6.2,-2.43 -6.2,-6.53 z m 8.39,0 v -6.72 c 0,-1.8 -0.74,-2.76 -2.19,-2.76 -1.45,0 -2.19,0.96 -2.19,2.76 v 6.72 c 0,1.8 0.74,2.76 2.19,2.76 1.45,0 2.19,-0.96 2.19,-2.76 z"
           id="path155"
           style="fill:#204f87" />
        <path
           class="st3"
           d="m 429.44,41.63 v 19.13 h -3.83 l -3.22,-7.41 -1.72,-4.67 -0.08,0.08 c 0.3,2.4 0.49,5.98 0.49,8.12 v 3.88 h -3.83 V 41.63 h 3.83 l 3.63,8.31 c 0.46,1.2 0.9,2.46 1.37,3.66 l 0.08,-0.08 c -0.33,-2.4 -0.55,-5.68 -0.55,-7.46 v -4.43 z"
           id="path157"
           style="fill:#204f87" />
        <path
           class="st3"
           d="m 433.71,55.18 h 3.99 c 0,1.53 0.77,2.19 2,2.19 1.29,0 1.91,-0.74 1.91,-1.69 0,-3.17 -7.49,-3.55 -7.49,-9.37 0,-2.92 2.05,-5.06 5.58,-5.06 3.53,0 5.66,2.1 5.66,5.63 h -3.99 c 0,-1.26 -0.57,-1.89 -1.69,-1.89 -1.01,0 -1.61,0.55 -1.61,1.42 0,3.01 7.6,3.2 7.6,9.29 0,3.14 -2.21,5.44 -6.01,5.44 -3.66,0 -5.95,-2.1 -5.95,-5.96 z"
           id="path159"
           style="fill:#204f87" />
      </g>
    </g>
  </g>
</svg>
